<?xml version="1.0" encoding="UTF-8" standalone="no"?>
<!DOCTYPE svg PUBLIC "-//W3C//DTD SVG 20010904//EN"
              "http://www.w3.org/TR/2001/REC-SVG-20010904/DTD/svg10.dtd">

<svg xmlns="http://www.w3.org/2000/svg"
     viewBox="0 0 500 500">
  <path id="logo"
        fill="#1185fe" stroke="none"
        d="M 113.10,41.54
           C 168.51,88.63 228.12,184.12 250.00,235.37
             271.88,184.13 331.49,88.63 386.90,41.54
             426.88,7.56 491.67,-18.74 491.67,64.93
             491.67,81.64 483.20,205.30 478.24,225.37
             460.99,295.17 398.12,312.97 342.20,302.20
             439.95,321.03 464.82,383.42 411.11,445.80
             309.12,564.28 264.52,416.07 253.09,378.10
             250.99,371.13 250.01,367.88 250.00,370.65
             249.98,367.88 249.00,371.13 246.91,378.10
             235.48,416.07 190.88,564.28 88.88,445.80
             35.18,383.42 60.05,321.03 157.80,302.20
             101.87,312.97 39.01,295.17 21.76,225.37
             16.79,205.30 8.33,81.64 8.33,64.93
             8.33,-18.74 73.12,7.56 113.10,41.54
             113.10,41.54 113.10,41.54 113.10,41.54 Z" />
</svg>
