<?xml version="1.0" encoding="UTF-8" standalone="no"?>
<!DOCTYPE svg PUBLIC "-//W3C//DTD SVG 20010904//EN" "http://www.w3.org/TR/2001/REC-SVG-20010904/DTD/svg10.dtd">
<svg xmlns="http://www.w3.org/2000/svg"
     viewBox="0 0 2337 2337">
  <metadata xmlns:dc="http://purl.org/dc/elements/1.1/" xmlns:cc="http://creativecommons.org/ns#" xmlns:rdf="http://www.w3.org/1999/02/22-rdf-syntax-ns#" >
    <rdf:RDF>
      <cc:Work>
        <dc:format>image/svg+xml</dc:format>
        <dc:type rdf:resource="http://purl.org/dc/dcmitype/StillImage"/>
        <dc:source rdf:resource="https://www.ietf.org/media/documents/ietf-logo.svg"/>
	<dc:source rdf:resource="https://www.syntelos.io/images/ietf.svg"/>
      </cc:Work>
    </rdf:RDF>
  </metadata>
  <g fill="#BBC" stroke="black" stroke-width="10">
    <path d="M 285.70,775.52
             C 285.70,775.52 141.50,919.72 141.50,919.72
             141.50,919.72 285.70,1063.92 285.70,1063.92
             285.70,1063.92 429.90,919.72 429.90,919.72
             429.90,919.72 285.70,775.52 285.70,775.52 Z" />
    <path d="M 1985.97,775.52
             C 1985.97,775.52 1841.77,919.72 1841.77,919.72
             1841.77,919.72 1985.97,1063.92 1985.97,1063.92
             1985.97,1063.92 2130.16,919.72 2130.16,919.72
             2130.16,919.72 1985.97,775.52 1985.97,775.52 Z" />
    <path d="M 625.35,775.52
             C 625.35,775.52 481.15,919.72 481.15,919.72
             481.15,919.72 625.35,1063.92 625.35,1063.92
             625.35,1063.92 769.55,919.72 769.55,919.72
             769.55,919.72 625.35,775.52 625.35,775.52 Z" />
    <path d="M 964.93,775.52
             C 964.93,775.52 820.73,919.72 820.73,919.72
             820.73,919.72 964.93,1063.92 964.93,1063.92
             964.93,1063.92 1109.13,919.72 1109.13,919.72
             1109.13,919.72 964.93,775.52 964.93,775.52 Z" />
    <path d="M 1304.52,775.52
             C 1304.52,775.52 1160.32,919.72 1160.32,919.72
             1160.32,919.72 1304.52,1063.92 1304.52,1063.92
             1304.52,1063.92 1448.72,919.72 1448.72,919.72
             1448.72,919.72 1304.52,775.52 1304.52,775.52 Z" />
    <path d="M 1644.10,775.52
             C 1644.10,775.52 1499.90,919.72 1499.90,919.72
             1499.90,919.72 1644.10,1063.92 1644.10,1063.92
             1644.10,1063.92 1788.30,919.72 1788.30,919.72
             1788.30,919.72 1644.10,775.52 1644.10,775.52 Z" />
    <path d="M 796.35,945.98
             C 796.35,945.98 652.15,1090.18 652.15,1090.18
             652.15,1090.18 796.35,1234.38 796.35,1234.38
             796.35,1234.38 940.55,1090.18 940.55,1090.18
             940.55,1090.18 796.35,945.98 796.35,945.98 Z" />
    <path d="M 1135.94,945.98
             C 1135.94,945.98 991.74,1090.18 991.74,1090.18
             991.74,1090.18 1135.94,1234.38 1135.94,1234.38
             1135.94,1234.38 1280.14,1090.18 1280.14,1090.18
             1280.14,1090.18 1135.94,945.98 1135.94,945.98 Z" />
    <path d="M 1475.52,945.98
             C 1475.52,945.98 1331.32,1090.18 1331.32,1090.18
             1331.32,1090.18 1475.52,1234.38 1475.52,1234.38
             1475.52,1234.38 1619.72,1090.18 1619.72,1090.18
             1619.72,1090.18 1475.52,945.98 1475.52,945.98 Z" />
    <path d="M 796.35,606.77
             C 796.35,606.77 652.15,750.97 652.15,750.97
             652.15,750.97 796.35,895.17 796.35,895.17
             796.35,895.17 940.55,750.97 940.55,750.97
             940.55,750.97 796.35,606.77 796.35,606.77 Z" />
    <path d="M 1135.94,606.77
             C 1135.94,606.77 991.74,750.97 991.74,750.97
             991.74,750.97 1135.94,895.17 1135.94,895.17
             1135.94,895.17 1280.14,750.97 1280.14,750.97
             1280.14,750.97 1135.94,606.77 1135.94,606.77 Z" />
    <path d="M 1475.52,606.77
             C 1475.52,606.77 1331.32,750.97 1331.32,750.97
             1331.32,750.97 1475.52,895.17 1475.52,895.17
             1475.52,895.17 1619.72,750.97 1619.72,750.97
             1619.72,750.97 1475.52,606.77 1475.52,606.77 Z" />
  </g>
  <g fill="#FD5" stroke="black" stroke-width="1">
    <path d="M 166.37,902.91
             C 166.37,902.91 463.18,902.91 463.18,902.91
             463.18,902.91 626.55,1066.28 626.55,1066.28
             626.55,1066.28 795.27,897.55 795.27,897.55
             795.27,897.55 964.93,1067.22 964.93,1067.22
             964.93,1067.22 1305.91,726.23 1305.91,726.23
             1305.91,726.23 1476.41,896.73 1476.41,896.73
             1476.41,896.73 1645.13,728.00 1645.13,728.00
             1645.13,728.00 1821.80,904.68 1821.80,904.68
             1821.80,904.68 2111.55,904.68 2111.55,904.68
             2111.55,904.68 2111.55,938.24 2111.55,938.24
             2111.55,938.24 1807.67,938.24 1807.67,938.24
             1807.67,938.24 1644.24,774.82 1644.24,774.82
             1644.24,774.82 1474.64,944.43 1474.64,944.43
             1474.64,944.43 1305.03,774.82 1305.03,774.82
             1305.03,774.82 965.82,1114.03 965.82,1114.03
             965.82,1114.03 796.21,944.43 796.21,944.43
             796.21,944.43 627.49,1113.15 627.49,1113.15
             627.49,1113.15 449.93,935.59 449.93,935.59
             449.93,935.59 164.60,935.59 164.60,935.59
             164.60,935.59 166.37,902.91 166.37,902.91 Z" />
    <path d="M 166.37,902.91
             C 166.37,902.91 463.18,902.91 463.18,902.91
             463.18,902.91 626.55,1066.28 626.55,1066.28
             626.55,1066.28 795.27,897.55 795.27,897.55
             795.27,897.55 964.93,1067.22 964.93,1067.22
             964.93,1067.22 1305.91,726.23 1305.91,726.23
             1305.91,726.23 1476.41,896.73 1476.41,896.73
             1476.41,896.73 1645.13,728.00 1645.13,728.00
             1645.13,728.00 1821.80,904.68 1821.80,904.68
             1821.80,904.68 2111.55,904.68 2111.55,904.68
             2111.55,904.68 2111.55,938.24 2111.55,938.24
             2111.55,938.24 1807.67,938.24 1807.67,938.24
             1807.67,938.24 1644.24,774.82 1644.24,774.82
             1644.24,774.82 1474.64,944.43 1474.64,944.43
             1474.64,944.43 1305.03,774.82 1305.03,774.82
             1305.03,774.82 965.82,1114.03 965.82,1114.03
             965.82,1114.03 796.21,944.43 796.21,944.43
             796.21,944.43 627.49,1113.15 627.49,1113.15
             627.49,1113.15 449.93,935.59 449.93,935.59
             449.93,935.59 164.60,935.59 164.60,935.59
             164.60,935.59 166.37,902.91 166.37,902.91 Z" />
    <path d="M 174.90,889.21
             C 174.90,889.21 174.90,952.81 174.90,952.81
             174.90,952.81 106.00,952.81 106.00,952.81
             106.00,952.81 106.00,889.21 106.00,889.21
             106.00,889.21 174.90,889.21 174.90,889.21 Z" />
    <path d="M 2160.28,889.21
             C 2160.28,889.21 2160.28,952.81 2160.28,952.81
             2160.28,952.81 2091.38,952.81 2091.38,952.81
             2091.38,952.81 2091.38,889.21 2091.38,889.21
             2091.38,889.21 2160.28,889.21 2160.28,889.21 Z" />
  </g>
  <g fill="black" stroke="none" stroke-width="0">
    <path d="M 250.70,1491.86
             C 250.70,1491.86 250.70,1732.17 250.70,1732.17
             250.70,1732.17 166.49,1732.17 166.49,1732.17
             166.49,1732.17 166.49,1491.86 166.49,1491.86
             166.49,1491.86 250.70,1491.86 250.70,1491.86 Z" />
    <path d="M 689.02,1491.86
             C 689.02,1491.86 869.07,1491.86 869.07,1491.86
             869.07,1491.86 869.07,1542.60 869.07,1542.60
             869.07,1542.60 773.23,1542.60 773.23,1542.60
             773.23,1542.60 773.23,1584.88 773.23,1584.88
             773.23,1584.88 860.97,1584.88 860.97,1584.88
             860.97,1584.88 860.97,1635.62 860.97,1635.62
             860.97,1635.62 773.23,1635.62 773.23,1635.62
             773.23,1635.62 773.23,1681.43 773.23,1681.43
             773.23,1681.43 870.48,1681.43 870.48,1681.43
             870.48,1681.43 870.48,1732.17 870.48,1732.17
             870.48,1732.17 689.02,1732.17 689.02,1732.17
             689.02,1732.17 689.02,1491.86 689.02,1491.86 Z" />
    <path d="M 1284.13,1552.12
             C 1284.13,1552.12 1284.13,1491.86 1284.13,1491.86
             1284.13,1491.86 1518.45,1491.86 1518.45,1491.86
             1518.45,1491.86 1518.45,1552.12 1518.45,1552.12
             1518.45,1552.12 1443.39,1552.12 1443.39,1552.12
             1443.39,1552.12 1443.39,1732.17 1443.39,1732.17
             1443.39,1732.17 1359.18,1732.17 1359.18,1732.17
             1359.18,1732.17 1359.18,1552.12 1359.18,1552.12
             1359.18,1552.12 1284.13,1552.12 1284.13,1552.12 Z" />
    <path d="M 1940.20,1491.86
             C 1940.20,1491.86 2115.67,1491.86 2115.67,1491.86
             2115.67,1491.86 2115.67,1542.60 2115.67,1542.60
             2115.67,1542.60 2024.41,1542.60 2024.41,1542.60
             2024.41,1542.60 2024.41,1586.29 2024.41,1586.29
             2024.41,1586.29 2110.03,1586.29 2110.03,1586.29
             2110.03,1586.29 2110.03,1637.03 2110.03,1637.03
             2110.03,1637.03 2024.41,1637.03 2024.41,1637.03
             2024.41,1637.03 2024.41,1732.17 2024.41,1732.17
             2024.41,1732.17 1940.20,1732.17 1940.20,1732.17
             1940.20,1732.17 1940.20,1491.86 1940.20,1491.86 Z" />
    <path d="M 2188.26,1525.52
             C 2193.70,1525.52 2196.41,1523.32 2196.41,1519.77
             2196.41,1516.11 2193.59,1514.13 2187.74,1514.13
             2187.74,1514.13 2180.11,1514.13 2180.11,1514.13
             2180.11,1514.13 2180.11,1525.52 2180.11,1525.52
             2180.11,1525.52 2188.26,1525.52 2188.26,1525.52 Z
             M 2197.35,1549.14
             C 2197.35,1549.14 2193.90,1542.45 2193.90,1542.45
             2190.14,1535.13 2187.21,1532.10 2182.93,1532.10
             2182.93,1532.10 2180.11,1532.10 2180.11,1532.10
             2180.11,1532.10 2180.11,1549.14 2180.11,1549.14
             2180.11,1549.14 2171.64,1549.14 2171.64,1549.14
             2171.64,1549.14 2171.64,1507.64 2171.64,1507.64
             2171.64,1507.64 2192.54,1507.64 2192.54,1507.64
             2201.01,1507.64 2205.30,1512.97 2205.30,1519.24
             2205.30,1525.62 2201.01,1530.01 2194.11,1530.85
             2194.11,1530.85 2194.11,1531.05 2194.11,1531.05
             2197.67,1532.31 2198.50,1533.35 2202.89,1540.78
             2202.89,1540.78 2207.80,1549.14 2207.80,1549.14
             2207.80,1549.14 2197.35,1549.14 2197.35,1549.14 Z
             M 2189.31,1559.80
             C 2206.66,1559.80 2220.76,1545.79 2220.76,1528.44
             2220.76,1510.99 2206.66,1496.98 2189.31,1496.98
             2171.96,1496.98 2157.84,1510.99 2157.84,1528.44
             2157.84,1545.79 2171.96,1559.80 2189.31,1559.80 Z
             M 2189.31,1489.46
             C 2210.84,1489.46 2228.29,1506.91 2228.29,1528.44
             2228.29,1549.87 2210.84,1567.32 2189.31,1567.32
             2167.78,1567.32 2150.32,1549.87 2150.32,1528.44
             2150.32,1506.91 2167.78,1489.46 2189.31,1489.46 Z" />
  </g>
</svg>
