<?xml version="1.0" encoding="UTF-8" standalone="no"?>
<!DOCTYPE svg PUBLIC "-//W3C//DTD SVG 20010904//EN"
              "http://www.w3.org/TR/2001/REC-SVG-20010904/DTD/svg10.dtd">
<svg xmlns="http://www.w3.org/2000/svg"
     viewBox="0 0 250 250">
  <metadata xmlns:dc="http://purl.org/dc/elements/1.1/" xmlns:cc="http://creativecommons.org/ns#" xmlns:rdf="http://www.w3.org/1999/02/22-rdf-syntax-ns#" >
    <rdf:RDF>
      <cc:Work>
        <dc:format>image/svg+xml</dc:format>
        <dc:type rdf:resource="http://purl.org/dc/dcmitype/StillImage"/>
        <dc:source rdf:resource="https://linkedin.com/"/>
      </cc:Work>
    </rdf:RDF>
  </metadata>
  <path id="Selection"
        fill="#0a66c2" stroke="none" stroke-width="0"
        d="M 17.00,0.12
           C 17.00,0.12 78.00,0.12 78.00,0.12
             78.00,0.12 198.00,0.12 198.00,0.12
             198.00,0.12 218.00,0.12 218.00,0.12
             229.74,0.00 243.26,-1.57 248.44,12.00
             250.00,16.09 249.99,19.72 250.00,24.00
             250.00,24.00 250.00,197.00 250.00,197.00
             250.00,197.00 250.00,218.00 250.00,218.00
             250.00,232.35 251.09,244.21 234.00,248.84
             229.55,250.05 227.50,249.99 223.00,250.00
             223.00,250.00 53.00,250.00 53.00,250.00
             53.00,250.00 20.00,250.00 20.00,250.00
             14.46,249.93 8.49,249.12 4.64,244.67
             0.47,239.87 0.01,231.10 0.00,225.00
             0.00,225.00 0.00,55.00 0.00,55.00
             0.00,55.00 0.00,24.00 0.00,24.00
             0.01,18.78 0.13,13.62 3.00,9.01
             6.40,3.56 11.07,1.80 17.00,0.12 Z
           M 49.00,31.33
           C 45.03,32.28 42.40,33.30 39.17,35.93
             21.32,50.46 34.04,80.70 59.00,75.62
             75.92,72.18 81.39,50.61 70.47,38.18
             64.84,31.77 57.05,30.43 49.00,31.33 Z
           M 178.00,215.00
           C 178.00,215.00 203.00,215.00 203.00,215.00
             205.41,215.00 211.60,215.40 213.40,213.98
             215.38,212.41 215.00,208.30 215.00,206.00
             215.00,206.00 215.00,148.00 215.00,148.00
             214.98,137.89 213.33,123.18 209.10,114.00
             201.62,97.77 186.35,94.02 170.00,93.09
             154.70,92.23 138.67,99.33 129.00,111.00
             129.00,111.00 129.00,95.00 129.00,95.00
             129.00,95.00 95.00,95.00 95.00,95.00
             95.00,95.00 95.00,215.00 95.00,215.00
             95.00,215.00 131.00,215.00 131.00,215.00
             131.00,215.00 131.00,171.00 131.00,171.00
             131.00,161.76 130.72,149.68 134.12,141.00
             138.87,128.85 155.39,120.55 167.00,128.65
             174.71,134.03 177.89,143.97 178.00,153.00
             178.00,153.00 178.00,215.00 178.00,215.00 Z
           M 72.00,95.00
           C 72.00,95.00 35.00,95.00 35.00,95.00
             35.00,95.00 35.00,187.00 35.00,187.00
             35.00,187.00 35.00,208.00 35.00,208.00
             35.00,208.00 36.60,213.98 36.60,213.98
             36.60,213.98 44.00,215.00 44.00,215.00
             44.00,215.00 72.00,215.00 72.00,215.00
             72.00,215.00 72.00,95.00 72.00,95.00 Z" />
</svg>
