<svg version="1.1" id="Layer_1" xmlns="http://www.w3.org/2000/svg" xmlns:xlink="http://www.w3.org/1999/xlink" x="0px" y="0px"
	 width="100%" viewBox="0 0 512 512" enable-background="new 0 0 512 512" xml:space="preserve">
<path fill="#C73B42" opacity="1.000000" stroke="none" 
	d="
M513.000000,198.000000 
	C513.000000,228.354233 513.000000,258.708466 512.690063,289.659851 
	C507.743622,295.201630 503.074677,300.116333 498.483124,305.102325 
	C495.813812,308.000977 493.489929,311.255463 490.600586,313.902283 
	C488.098145,316.194733 484.581818,317.441406 482.270233,319.870392 
	C473.474884,329.112518 464.997650,338.657013 456.359528,348.049835 
	C455.708527,348.757721 454.669342,349.091827 453.910156,349.720001 
	C451.296478,351.882721 448.166504,353.700043 446.259918,356.379456 
	C442.538300,361.609680 439.797791,367.781494 434.550323,371.572937 
	C424.004974,379.192230 416.170990,389.429047 407.094269,398.461853 
	C404.781738,400.763153 402.002960,402.660706 399.233612,404.421753 
	C395.779907,406.617981 392.519012,408.691711 392.386841,413.458435 
	C392.357452,414.517731 391.259247,415.793884 390.314056,416.541595 
	C383.763580,421.723358 376.995789,426.638580 370.582764,431.981445 
	C368.396545,433.802795 367.167908,436.727325 365.256714,438.935760 
	C362.341370,442.304413 359.044525,445.351013 356.229309,448.795593 
	C354.033539,451.482147 353.192352,455.568115 348.305756,454.882568 
	C347.575378,454.780090 346.523956,456.215790 345.780640,457.077576 
	C340.865631,462.775909 335.977356,468.497620 331.117554,474.243134 
	C329.414459,476.256683 328.229156,479.113281 326.094177,480.282196 
	C319.067169,484.129486 316.405975,492.850830 308.517456,495.585510 
	C308.122406,495.722534 307.633789,496.318298 307.620087,496.715332 
	C307.464111,501.237213 303.575745,502.814362 300.948364,505.423492 
	C298.519501,507.835449 296.307526,510.465820 294.000000,513.000000 
	C269.312439,513.000000 244.624878,513.000000 219.389709,512.637451 
	C217.204529,508.118317 219.317734,505.213654 222.163879,502.640594 
	C229.714798,495.814117 237.366196,489.097687 244.852875,482.202057 
	C246.893433,480.322601 248.128754,477.394226 250.378693,475.957428 
	C253.825714,473.756256 258.362091,473.101196 258.528870,467.575439 
	C258.555634,466.688019 260.776733,465.910461 261.919189,465.001373 
	C263.175018,464.002014 264.467804,463.012115 265.551575,461.839722 
	C270.834167,456.125275 275.995575,450.297760 281.332886,444.635712 
	C282.670868,443.216339 284.751923,442.489136 286.059753,441.051147 
	C291.039062,435.576172 295.815552,429.917267 300.735260,424.387085 
	C301.592743,423.423126 302.663818,422.311554 303.827087,422.013947 
	C309.742310,420.500702 311.100128,415.018280 314.177185,410.564026 
	C342.848602,398.611542 365.812408,380.024780 383.709900,355.116333 
	C396.167267,337.778992 404.560150,318.532684 410.536011,297.989288 
	C416.367157,297.648071 418.748047,293.652191 421.931732,289.883057 
	C428.233429,282.422516 435.448029,275.723724 442.392456,268.817841 
	C450.399994,260.854767 458.353149,252.821304 466.697083,245.221497 
	C469.297760,242.852722 471.222870,240.511963 473.013550,237.451202 
	C475.339264,233.475845 479.241852,230.354401 482.720184,227.140854 
	C486.365845,223.772736 490.625610,221.031235 494.047516,217.468857 
	C498.184326,213.162277 501.726807,208.284286 505.513550,203.643021 
	C505.825806,203.260330 505.939880,202.651794 506.315002,202.395111 
	C508.515472,200.889359 510.766235,199.457077 513.000000,198.000000 
z"/>
<path fill="#E44E54" opacity="1.000000" stroke="none" 
	d="
M1.000000,252.000000 
	C1.000000,227.312439 1.000000,202.624878 1.327934,177.366730 
	C6.379358,172.555695 11.123563,168.337784 15.799200,164.045197 
	C16.361534,163.528915 16.484461,162.563583 16.928675,161.883179 
	C17.978146,160.275757 18.883062,158.493622 20.232525,157.178207 
	C23.637177,153.859467 27.398788,150.901215 30.733788,147.518906 
	C32.762569,145.461334 34.031155,142.655289 36.055790,140.592316 
	C39.508236,137.074539 43.547058,134.113358 46.852684,130.475891 
	C49.929237,127.090477 52.232883,123.015877 55.131065,119.451431 
	C58.005348,115.916397 60.675686,111.840042 64.368500,109.431824 
	C70.280388,105.576469 76.255157,102.133110 79.634140,95.576370 
	C80.302040,94.280350 81.504326,93.271126 82.290733,92.022896 
	C86.913307,84.685616 96.833488,82.571365 100.151939,73.883560 
	C100.468803,73.054008 102.110947,72.769424 103.079269,72.141525 
	C104.857277,70.988586 106.923363,70.061874 108.284676,68.523476 
	C113.227585,62.937595 117.281868,56.366203 122.912155,51.646866 
	C127.983147,47.396324 132.645050,43.020885 137.002090,38.049820 
	C142.740204,31.503071 149.225006,25.606750 155.443405,19.486284 
	C160.596359,14.414477 165.864304,9.459156 170.991592,4.361993 
	C171.888626,3.470234 172.341812,2.132019 173.000000,0.999998 
	C198.354233,1.000000 223.708450,1.000000 249.431961,1.329130 
	C246.092621,5.499812 242.414658,9.371524 238.668839,13.176446 
	C231.592117,20.364819 224.170135,27.241711 217.466385,34.760487 
	C211.252090,41.730305 202.408768,46.444538 199.037109,55.931896 
	C198.715134,56.837902 197.298065,57.358952 196.382034,58.048962 
	C190.257492,62.662373 182.713135,65.571930 179.128036,73.210068 
	C177.956436,75.706177 176.147049,78.212364 173.985855,79.879929 
	C165.507980,86.421349 157.211166,93.008545 150.476791,101.534813 
	C146.962692,105.983940 141.924942,109.197617 137.834625,113.232140 
	C133.280151,117.724480 128.993973,122.491318 124.660774,127.202835 
	C124.014709,127.905296 123.858345,129.035538 123.289970,129.836212 
	C121.429192,132.457535 119.881943,135.497620 117.481079,137.495956 
	C113.285919,140.987747 108.502716,143.765152 104.060623,146.973038 
	C102.767662,147.906754 101.728828,149.229477 100.689484,150.470978 
	C95.687004,156.446442 92.322006,163.469788 86.092552,168.796890 
	C75.316666,178.011856 65.649223,188.523926 55.527702,198.502960 
	C46.739944,207.166977 37.785847,215.672287 29.246037,224.574631 
	C22.552670,231.552139 16.563114,239.204346 9.878784,246.191254 
	C7.497285,248.680573 3.992201,250.094940 1.000000,252.000000 
z"/>
<path fill="#E04B52" opacity="1.000000" stroke="none" 
	d="
M1.000000,252.468658 
	C3.992201,250.094940 7.497285,248.680573 9.878784,246.191254 
	C16.563114,239.204346 22.552670,231.552139 29.246037,224.574631 
	C37.785847,215.672287 46.739944,207.166977 55.527702,198.502960 
	C65.649223,188.523926 75.316666,178.011856 86.092552,168.796890 
	C92.322006,163.469788 95.687004,156.446442 100.689484,150.470978 
	C101.728828,149.229477 102.767662,147.906754 104.060623,146.973038 
	C108.502716,143.765152 113.285919,140.987747 117.481079,137.495956 
	C119.881943,135.497620 121.429192,132.457535 123.289970,129.836212 
	C123.858345,129.035538 124.014709,127.905296 124.660774,127.202835 
	C128.993973,122.491318 133.280151,117.724480 137.834625,113.232140 
	C141.924942,109.197617 146.962692,105.983940 150.476791,101.534813 
	C157.211166,93.008545 165.507980,86.421349 173.985855,79.879929 
	C176.147049,78.212364 177.956436,75.706177 179.128036,73.210068 
	C182.713135,65.571930 190.257492,62.662373 196.382034,58.048962 
	C197.298065,57.358952 198.715134,56.837902 199.037109,55.931896 
	C202.408768,46.444538 211.252090,41.730305 217.466385,34.760487 
	C224.170135,27.241711 231.592117,20.364819 238.668839,13.176446 
	C242.414658,9.371524 246.092621,5.499812 249.900620,1.329130 
	C269.354218,1.000000 288.708466,1.000000 308.440491,1.335331 
	C303.369629,7.750756 298.102173,14.006831 292.418610,19.858753 
	C287.292999,25.136206 281.632263,29.889364 276.351624,35.022007 
	C269.726349,41.461624 263.180084,47.986160 256.725983,54.597267 
	C250.770844,60.697227 245.107285,67.084808 239.080734,73.111122 
	C234.390457,77.801201 227.491776,80.259132 224.957260,87.135201 
	C218.743073,88.032845 217.745880,93.765579 214.654419,98.037643 
	C202.150818,103.492783 189.571976,108.005386 177.935150,114.268303 
	C160.599396,123.598389 146.606628,137.197617 134.470581,152.635925 
	C120.736717,170.106857 111.444321,189.855606 104.569656,211.014130 
	C103.541992,211.130035 102.757629,211.034546 102.250900,211.364899 
	C93.598259,217.006149 86.796089,224.506866 80.396942,232.536194 
	C76.448456,237.490524 71.805931,241.919373 67.241791,246.343521 
	C65.035118,248.482498 61.925987,249.728912 59.855999,251.963516 
	C52.475647,259.930817 45.632587,268.407043 38.083157,276.203613 
	C29.463161,285.105774 20.353537,293.537994 11.356256,302.068481 
	C8.051877,305.201447 4.460478,308.031677 1.000004,311.000000 
	C1.000000,291.645782 1.000000,272.291534 1.000000,252.468658 
z"/>
<path fill="#C3393F" opacity="1.000000" stroke="none" 
	d="
M294.468658,513.000000 
	C296.307526,510.465820 298.519501,507.835449 300.948364,505.423492 
	C303.575745,502.814362 307.464111,501.237213 307.620087,496.715332 
	C307.633789,496.318298 308.122406,495.722534 308.517456,495.585510 
	C316.405975,492.850830 319.067169,484.129486 326.094177,480.282196 
	C328.229156,479.113281 329.414459,476.256683 331.117554,474.243134 
	C335.977356,468.497620 340.865631,462.775909 345.780640,457.077576 
	C346.523956,456.215790 347.575378,454.780090 348.305756,454.882568 
	C353.192352,455.568115 354.033539,451.482147 356.229309,448.795593 
	C359.044525,445.351013 362.341370,442.304413 365.256714,438.935760 
	C367.167908,436.727325 368.396545,433.802795 370.582764,431.981445 
	C376.995789,426.638580 383.763580,421.723358 390.314056,416.541595 
	C391.259247,415.793884 392.357452,414.517731 392.386841,413.458435 
	C392.519012,408.691711 395.779907,406.617981 399.233612,404.421753 
	C402.002960,402.660706 404.781738,400.763153 407.094269,398.461853 
	C416.170990,389.429047 424.004974,379.192230 434.550323,371.572937 
	C439.797791,367.781494 442.538300,361.609680 446.259918,356.379456 
	C448.166504,353.700043 451.296478,351.882721 453.910156,349.720001 
	C454.669342,349.091827 455.708527,348.757721 456.359528,348.049835 
	C464.997650,338.657013 473.474884,329.112518 482.270233,319.870392 
	C484.581818,317.441406 488.098145,316.194733 490.600586,313.902283 
	C493.489929,311.255463 495.813812,308.000977 498.483124,305.102325 
	C503.074677,300.116333 507.743622,295.201630 512.690063,290.128479 
	C513.000000,309.020905 513.000000,328.041779 512.689209,347.660156 
	C508.851440,352.614624 505.661987,357.309540 501.717926,361.248962 
	C495.855865,367.104187 489.069672,372.056702 483.394745,378.070831 
	C476.953430,384.897064 471.871002,392.770386 464.151428,398.694763 
	C457.371674,403.897888 450.583252,409.846680 447.284790,418.488403 
	C446.663116,420.117126 444.609375,421.575806 442.875732,422.339264 
	C434.797668,425.896637 429.481171,432.281860 424.324768,439.095062 
	C419.645050,445.278381 414.366211,451.011475 409.271393,456.873413 
	C408.663727,457.572540 407.495392,457.752228 406.688080,458.317230 
	C405.351013,459.253082 403.948517,460.165558 402.832642,461.335083 
	C398.421448,465.958191 394.268616,470.836578 389.732117,475.329712 
	C378.378235,486.574982 366.842041,497.635986 355.459686,508.852844 
	C354.352631,509.943817 353.806519,511.604034 353.000000,513.000000 
	C333.645782,513.000000 314.291534,513.000000 294.468658,513.000000 
z"/>
<path fill="#E95157" opacity="1.000000" stroke="none" 
	d="
M172.531342,0.999998 
	C172.341812,2.132019 171.888626,3.470234 170.991592,4.361993 
	C165.864304,9.459156 160.596359,14.414477 155.443405,19.486284 
	C149.225006,25.606750 142.740204,31.503071 137.002090,38.049820 
	C132.645050,43.020885 127.983147,47.396324 122.912155,51.646866 
	C117.281868,56.366203 113.227585,62.937595 108.284676,68.523476 
	C106.923363,70.061874 104.857277,70.988586 103.079269,72.141525 
	C102.110947,72.769424 100.468803,73.054008 100.151939,73.883560 
	C96.833488,82.571365 86.913307,84.685616 82.290733,92.022896 
	C81.504326,93.271126 80.302040,94.280350 79.634140,95.576370 
	C76.255157,102.133110 70.280388,105.576469 64.368500,109.431824 
	C60.675686,111.840042 58.005348,115.916397 55.131065,119.451431 
	C52.232883,123.015877 49.929237,127.090477 46.852684,130.475891 
	C43.547058,134.113358 39.508236,137.074539 36.055790,140.592316 
	C34.031155,142.655289 32.762569,145.461334 30.733788,147.518906 
	C27.398788,150.901215 23.637177,153.859467 20.232525,157.178207 
	C18.883062,158.493622 17.978146,160.275757 16.928675,161.883179 
	C16.484461,162.563583 16.361534,163.528915 15.799200,164.045197 
	C11.123563,168.337784 6.379358,172.555695 1.327934,176.898071 
	C1.000000,148.645767 1.000000,120.291542 1.341711,91.387138 
	C2.430481,90.486183 3.375391,90.318001 3.893829,89.756233 
	C8.780476,84.461166 13.397362,78.902260 18.482424,73.809196 
	C24.013853,68.269073 30.017223,63.203323 35.702621,57.812405 
	C38.563633,55.099571 41.848721,52.508816 43.749218,49.181530 
	C46.891090,43.680904 50.842155,39.356907 56.267651,36.174603 
	C58.240105,35.017662 60.044479,33.452709 61.642197,31.799994 
	C67.583839,25.653818 73.519371,19.494188 79.234077,13.138982 
	C82.701279,9.283190 85.758568,5.058800 89.000000,1.000001 
	C116.687561,1.000000 144.375122,1.000000 172.531342,0.999998 
z"/>
<path fill="#D5444B" opacity="1.000000" stroke="none" 
	d="
M44.000000,513.000000 
	C29.735928,513.000000 15.471857,513.000000 1.000000,513.000000 
	C1.000000,497.313049 1.000000,481.625183 1.374546,465.434570 
	C3.799527,463.716400 6.104454,462.788025 7.855633,461.235168 
	C14.866763,455.018005 19.688169,446.390869 28.748991,442.391998 
	C29.676550,441.982635 30.242039,440.735901 30.955809,439.861664 
	C37.420509,431.943451 41.272812,421.452698 52.448372,418.143646 
	C53.208466,417.918579 53.623489,416.641266 54.276588,415.923981 
	C60.254013,409.358856 66.206833,402.770416 72.259346,396.274994 
	C74.581299,393.783112 77.028130,391.380524 79.615089,389.167572 
	C87.871811,382.104584 93.013550,371.997314 102.537941,366.094696 
	C104.840317,364.667816 105.891251,361.356384 107.855949,359.223175 
	C112.641769,354.026855 117.625946,349.013275 122.768669,344.214661 
	C129.365936,353.193695 135.165100,362.376831 142.251144,370.427185 
	C148.532089,377.562836 156.243454,383.439362 162.969086,389.973358 
	C161.745300,390.554962 160.691833,390.859070 160.036896,391.544159 
	C156.503616,395.240173 153.625549,399.903381 149.455978,402.561737 
	C144.545395,405.692474 139.983109,408.409637 138.494415,414.487030 
	C138.264465,415.425842 136.939285,416.144196 136.039551,416.863037 
	C131.621201,420.393158 126.983398,423.676025 122.792419,427.455719 
	C118.431343,431.388824 114.404388,435.708008 110.396576,440.012238 
	C107.147552,443.501587 104.274681,447.343079 101.000175,450.806396 
	C95.907707,456.192566 90.732872,461.512543 85.377762,466.635681 
	C79.326668,472.424683 72.676628,477.627777 66.976776,483.729950 
	C63.053082,487.930573 60.338047,493.236023 54.927235,496.030884 
	C54.161846,496.426178 53.811020,497.605591 53.242142,498.403442 
	C51.741600,500.507996 50.116676,502.533295 48.745525,504.718323 
	C47.055733,507.411133 45.572506,510.233582 44.000000,513.000000 
z"/>
<path fill="#D04148" opacity="1.000000" stroke="none" 
	d="
M44.468658,513.000000 
	C45.572506,510.233582 47.055733,507.411133 48.745525,504.718323 
	C50.116676,502.533295 51.741600,500.507996 53.242142,498.403442 
	C53.811020,497.605591 54.161846,496.426178 54.927235,496.030884 
	C60.338047,493.236023 63.053082,487.930573 66.976776,483.729950 
	C72.676628,477.627777 79.326668,472.424683 85.377762,466.635681 
	C90.732872,461.512543 95.907707,456.192566 101.000175,450.806396 
	C104.274681,447.343079 107.147552,443.501587 110.396576,440.012238 
	C114.404388,435.708008 118.431343,431.388824 122.792419,427.455719 
	C126.983398,423.676025 131.621201,420.393158 136.039551,416.863037 
	C136.939285,416.144196 138.264465,415.425842 138.494415,414.487030 
	C139.983109,408.409637 144.545395,405.692474 149.455978,402.561737 
	C153.625549,399.903381 156.503616,395.240173 160.036896,391.544159 
	C160.691833,390.859070 161.745300,390.554962 163.279129,390.086731 
	C181.309708,403.146088 200.669891,412.024902 221.243042,417.866638 
	C212.931778,422.221100 206.042191,427.386322 201.565918,435.602356 
	C199.386581,439.602386 197.333801,444.457092 191.631042,445.179474 
	C191.097794,445.247009 190.625519,445.990173 190.172195,446.464783 
	C184.252594,452.662476 178.288742,458.819275 172.457291,465.098999 
	C170.440964,467.270325 168.995087,469.996643 166.876266,472.042358 
	C162.201797,476.555542 157.159714,480.686768 152.459732,485.175018 
	C145.034500,492.265686 137.678345,499.434845 130.500778,506.773987 
	C128.892883,508.418060 128.144211,510.902466 127.000000,513.000000 
	C99.645775,513.000000 72.291542,513.000000 44.468658,513.000000 
z"/>
<path fill="#D9474E" opacity="1.000000" stroke="none" 
	d="
M122.530258,343.926117 
	C117.625946,349.013275 112.641769,354.026855 107.855949,359.223175 
	C105.891251,361.356384 104.840317,364.667816 102.537941,366.094696 
	C93.013550,371.997314 87.871811,382.104584 79.615089,389.167572 
	C77.028130,391.380524 74.581299,393.783112 72.259346,396.274994 
	C66.206833,402.770416 60.254013,409.358856 54.276588,415.923981 
	C53.623489,416.641266 53.208466,417.918579 52.448372,418.143646 
	C41.272812,421.452698 37.420509,431.943451 30.955809,439.861664 
	C30.242039,440.735901 29.676550,441.982635 28.748991,442.391998 
	C19.688169,446.390869 14.866763,455.018005 7.855633,461.235168 
	C6.104454,462.788025 3.799527,463.716400 1.374546,464.965881 
	C1.000000,437.979095 1.000000,410.958221 1.338377,383.371033 
	C3.536421,380.626282 5.223606,378.265533 7.292316,376.307953 
	C11.375482,372.444183 18.306555,371.462433 18.983313,364.085358 
	C19.113842,362.662506 21.239307,361.328186 22.604036,360.135590 
	C24.557775,358.428375 26.916588,357.122528 28.633738,355.221832 
	C31.016293,352.584625 32.603981,349.168823 35.171993,346.772125 
	C40.757023,341.559692 46.886265,336.933502 52.527645,331.777313 
	C57.039314,327.653656 61.307018,323.235260 65.412254,318.702454 
	C69.745056,313.918427 73.574272,308.672211 77.989151,303.971283 
	C80.074226,301.751129 84.359062,300.865906 85.315117,298.452118 
	C88.297661,290.921967 95.708511,288.783539 100.997131,284.419342 
	C101.559776,287.853760 101.741074,290.938629 102.490318,293.878754 
	C106.964417,311.435944 113.551918,328.164062 122.530258,343.926117 
z"/>
<path fill="#CC3F45" opacity="1.000000" stroke="none" 
	d="
M513.000000,197.531342 
	C510.766235,199.457077 508.515472,200.889359 506.315002,202.395111 
	C505.939880,202.651794 505.825806,203.260330 505.513550,203.643021 
	C501.726807,208.284286 498.184326,213.162277 494.047516,217.468857 
	C490.625610,221.031235 486.365845,223.772736 482.720184,227.140854 
	C479.241852,230.354401 475.339264,233.475845 473.013550,237.451202 
	C471.222870,240.511963 469.297760,242.852722 466.697083,245.221497 
	C458.353149,252.821304 450.399994,260.854767 442.392456,268.817841 
	C435.448029,275.723724 428.233429,282.422516 421.931732,289.883057 
	C418.748047,293.652191 416.367157,297.648071 410.517578,297.599670 
	C411.746704,284.401733 414.000214,271.618896 414.838287,258.743988 
	C415.819977,243.661972 412.822662,228.829773 409.975891,213.992523 
	C412.228973,211.416245 414.002930,208.837311 416.089294,206.542404 
	C421.097229,201.034012 426.139099,195.546982 431.384735,190.267426 
	C435.210907,186.416565 438.822266,181.373596 443.547058,179.647308 
	C449.182556,177.588257 451.380280,174.299164 452.953217,169.323410 
	C453.492462,167.617432 454.781250,165.952377 456.144684,164.736221 
	C462.751160,158.843323 469.652893,153.274460 476.131836,147.248672 
	C479.303070,144.299194 481.753784,140.581146 484.592773,137.264130 
	C485.336090,136.395645 486.351837,135.766846 487.174011,134.958328 
	C493.012054,129.217377 498.758728,123.380867 504.692444,117.740974 
	C507.269379,115.291695 510.219421,113.235001 513.000000,111.000000 
	C513.000000,139.687561 513.000000,168.375122 513.000000,197.531342 
z"/>
<path fill="#CB3E45" opacity="1.000000" stroke="none" 
	d="
M127.468658,513.000000 
	C128.144211,510.902466 128.892883,508.418060 130.500778,506.773987 
	C137.678345,499.434845 145.034500,492.265686 152.459732,485.175018 
	C157.159714,480.686768 162.201797,476.555542 166.876266,472.042358 
	C168.995087,469.996643 170.440964,467.270325 172.457291,465.098999 
	C178.288742,458.819275 184.252594,452.662476 190.172195,446.464783 
	C190.625519,445.990173 191.097794,445.247009 191.631042,445.179474 
	C197.333801,444.457092 199.386581,439.602386 201.565918,435.602356 
	C206.042191,427.386322 212.931778,422.221100 221.622131,417.880615 
	C224.857025,418.432007 227.361786,419.747711 229.899323,419.814331 
	C244.892792,420.207855 260.029022,421.633026 274.852051,420.117584 
	C288.061829,418.767151 300.927948,414.055481 313.945740,410.827179 
	C311.100128,415.018280 309.742310,420.500702 303.827087,422.013947 
	C302.663818,422.311554 301.592743,423.423126 300.735260,424.387085 
	C295.815552,429.917267 291.039062,435.576172 286.059753,441.051147 
	C284.751923,442.489136 282.670868,443.216339 281.332886,444.635712 
	C275.995575,450.297760 270.834167,456.125275 265.551575,461.839722 
	C264.467804,463.012115 263.175018,464.002014 261.919189,465.001373 
	C260.776733,465.910461 258.555634,466.688019 258.528870,467.575439 
	C258.362091,473.101196 253.825714,473.756256 250.378693,475.957428 
	C248.128754,477.394226 246.893433,480.322601 244.852875,482.202057 
	C237.366196,489.097687 229.714798,495.814117 222.163879,502.640594 
	C219.317734,505.213654 217.204529,508.118317 218.921051,512.637451 
	C188.645767,513.000000 158.291550,513.000000 127.468658,513.000000 
z"/>
<path fill="#D5454B" opacity="1.000000" stroke="none" 
	d="
M451.000000,1.000002 
	C470.666656,1.000000 490.333374,0.985391 509.999908,1.033879 
	C511.269440,1.037009 513.612244,-0.085014 512.639893,3.536050 
	C511.225189,4.524851 509.910980,4.718624 509.158600,5.472867 
	C504.654663,9.988072 500.403351,14.759130 495.832306,19.202627 
	C489.476746,25.380840 482.868225,31.298080 476.459686,37.422962 
	C473.352539,40.392559 470.451599,43.578102 467.461426,46.669861 
	C460.477570,53.890987 453.502716,61.120846 446.511292,68.334633 
	C442.583221,72.387634 438.591278,76.379471 434.704010,80.470963 
	C432.884583,82.386032 431.421204,84.663742 429.487579,86.441078 
	C425.205383,90.377190 420.509613,93.880363 416.383728,97.965363 
	C410.886749,103.407906 405.781311,109.245216 400.487854,114.894356 
	C397.235626,118.365135 394.320190,122.288635 390.593018,125.147820 
	C383.586060,130.522980 380.375793,139.841354 371.248718,143.017395 
	C360.011658,133.749298 349.049438,124.643364 338.426147,115.314148 
	C339.245544,114.633690 339.928864,114.265831 340.175507,113.705696 
	C343.127014,107.002487 348.002228,102.299927 354.547485,99.060211 
	C355.981445,98.350418 356.734467,96.337761 357.919464,95.032578 
	C359.235809,93.582710 360.600983,92.152802 362.097229,90.895432 
	C365.994324,87.620430 370.010071,84.485863 373.877655,81.177338 
	C374.364746,80.760651 374.289154,79.642883 374.401733,78.839767 
	C374.749298,76.359558 382.082733,68.167328 384.258026,67.324455 
	C386.351349,66.513336 388.661926,65.557343 390.128357,63.972324 
	C393.821320,59.980721 396.303711,54.259731 400.705627,51.667328 
	C408.520782,47.064774 411.597595,38.636364 418.461853,33.097260 
	C428.205811,25.234346 435.766357,14.660146 446.153107,7.158562 
	C448.189270,5.687984 449.405579,3.082206 451.000000,1.000002 
z"/>
<path fill="#D9474E" opacity="1.000000" stroke="none" 
	d="
M450.531342,1.000002 
	C449.405579,3.082206 448.189270,5.687984 446.153107,7.158562 
	C435.766357,14.660146 428.205811,25.234346 418.461853,33.097260 
	C411.597595,38.636364 408.520782,47.064774 400.705627,51.667328 
	C396.303711,54.259731 393.821320,59.980721 390.128357,63.972324 
	C388.661926,65.557343 386.351349,66.513336 384.258026,67.324455 
	C382.082733,68.167328 374.749298,76.359558 374.401733,78.839767 
	C374.289154,79.642883 374.364746,80.760651 373.877655,81.177338 
	C370.010071,84.485863 365.994324,87.620430 362.097229,90.895432 
	C360.600983,92.152802 359.235809,93.582710 357.919464,95.032578 
	C356.734467,96.337761 355.981445,98.350418 354.547485,99.060211 
	C348.002228,102.299927 343.127014,107.002487 340.175507,113.705696 
	C339.928864,114.265831 339.245544,114.633690 338.116486,115.210106 
	C320.849701,105.358093 303.141174,98.230804 284.145081,94.532623 
	C289.396790,89.634995 292.641418,82.889954 300.027557,80.855225 
	C301.261475,80.515305 302.158600,78.859474 303.152649,77.758705 
	C306.663940,73.870384 310.205261,70.006966 313.628235,66.041756 
	C316.506195,62.707897 318.683319,58.398552 322.202911,56.105118 
	C325.070343,54.236626 327.002075,52.139854 329.125641,49.631580 
	C333.774689,44.140350 338.966034,39.088005 344.139832,34.066536 
	C350.070862,28.310150 356.229004,22.788067 362.266205,17.140366 
	C362.739563,16.697546 363.013336,16.048426 363.422485,15.528753 
	C364.978973,13.551993 366.630707,11.645161 368.101532,9.607287 
	C370.136475,6.787836 372.040131,3.873634 374.000000,1.000000 
	C399.354218,1.000000 424.708466,1.000000 450.531342,1.000002 
z"/>
<path fill="#C0373E" opacity="1.000000" stroke="none" 
	d="
M353.468689,513.000000 
	C353.806519,511.604034 354.352631,509.943817 355.459686,508.852844 
	C366.842041,497.635986 378.378235,486.574982 389.732117,475.329712 
	C394.268616,470.836578 398.421448,465.958191 402.832642,461.335083 
	C403.948517,460.165558 405.351013,459.253082 406.688080,458.317230 
	C407.495392,457.752228 408.663727,457.572540 409.271393,456.873413 
	C414.366211,451.011475 419.645050,445.278381 424.324768,439.095062 
	C429.481171,432.281860 434.797668,425.896637 442.875732,422.339264 
	C444.609375,421.575806 446.663116,420.117126 447.284790,418.488403 
	C450.583252,409.846680 457.371674,403.897888 464.151428,398.694763 
	C471.871002,392.770386 476.953430,384.897064 483.394745,378.070831 
	C489.069672,372.056702 495.855865,367.104187 501.717926,361.248962 
	C505.661987,357.309540 508.851440,352.614624 512.689209,348.128845 
	C513.000000,367.020905 513.000000,386.041779 512.673706,405.629150 
	C507.095520,410.435730 501.714752,414.529358 496.651855,418.984283 
	C494.469452,420.904572 493.196472,423.838135 491.072784,425.849335 
	C485.608948,431.023804 479.718903,435.754425 474.343964,441.014740 
	C469.507965,445.747620 465.064789,450.890686 460.571045,455.961578 
	C457.177185,459.791290 454.693726,464.978058 450.549316,467.484009 
	C440.186737,473.749939 434.292114,484.123383 425.824768,492.046631 
	C420.321045,497.196716 414.463989,501.972290 409.027039,507.188568 
	C407.533905,508.621094 406.983185,511.035919 406.000000,513.000000 
	C388.645782,513.000000 371.291534,513.000000 353.468689,513.000000 
z"/>
<path fill="#DD4A50" opacity="1.000000" stroke="none" 
	d="
M100.878220,284.002899 
	C95.708511,288.783539 88.297661,290.921967 85.315117,298.452118 
	C84.359062,300.865906 80.074226,301.751129 77.989151,303.971283 
	C73.574272,308.672211 69.745056,313.918427 65.412254,318.702454 
	C61.307018,323.235260 57.039314,327.653656 52.527645,331.777313 
	C46.886265,336.933502 40.757023,341.559692 35.171993,346.772125 
	C32.603981,349.168823 31.016293,352.584625 28.633738,355.221832 
	C26.916588,357.122528 24.557775,358.428375 22.604036,360.135590 
	C21.239307,361.328186 19.113842,362.662506 18.983313,364.085358 
	C18.306555,371.462433 11.375482,372.444183 7.292316,376.307953 
	C5.223606,378.265533 3.536421,380.626282 1.338377,382.902405 
	C1.000000,359.312439 1.000000,335.624878 1.000004,311.468658 
	C4.460478,308.031677 8.051877,305.201447 11.356256,302.068481 
	C20.353537,293.537994 29.463161,285.105774 38.083157,276.203613 
	C45.632587,268.407043 52.475647,259.930817 59.855999,251.963516 
	C61.925987,249.728912 65.035118,248.482498 67.241791,246.343521 
	C71.805931,241.919373 76.448456,237.490524 80.396942,232.536194 
	C86.796089,224.506866 93.598259,217.006149 102.250900,211.364899 
	C102.757629,211.034546 103.541992,211.130035 104.474075,211.395996 
	C100.797401,228.686447 98.302704,245.784134 99.112572,263.210327 
	C99.435249,270.153534 100.274261,277.072754 100.878220,284.002899 
z"/>
<path fill="#D04148" opacity="1.000000" stroke="none" 
	d="
M513.000000,110.531342 
	C510.219421,113.235001 507.269379,115.291695 504.692444,117.740974 
	C498.758728,123.380867 493.012054,129.217377 487.174011,134.958328 
	C486.351837,135.766846 485.336090,136.395645 484.592773,137.264130 
	C481.753784,140.581146 479.303070,144.299194 476.131836,147.248672 
	C469.652893,153.274460 462.751160,158.843323 456.144684,164.736221 
	C454.781250,165.952377 453.492462,167.617432 452.953217,169.323410 
	C451.380280,174.299164 449.182556,177.588257 443.547058,179.647308 
	C438.822266,181.373596 435.210907,186.416565 431.384735,190.267426 
	C426.139099,195.546982 421.097229,201.034012 416.089294,206.542404 
	C414.002930,208.837311 412.228973,211.416245 409.720428,213.720947 
	C405.673309,198.130905 399.122314,183.939392 391.867828,169.983246 
	C399.171448,163.010056 406.198730,156.252502 413.137817,149.405563 
	C419.227478,143.396774 425.307587,137.373459 431.228027,131.199387 
	C437.338165,124.827438 444.820862,119.836151 449.165771,111.638069 
	C451.027313,108.125633 455.040039,105.730042 458.148499,102.907593 
	C462.053650,99.361786 466.209137,96.073738 469.929749,92.348007 
	C473.299591,88.973518 476.173492,85.109329 479.374298,81.558571 
	C481.569763,79.123024 483.543396,75.964226 486.330078,74.689865 
	C492.861084,71.703217 496.259186,66.056015 499.829895,60.580814 
	C503.083984,55.591167 506.967010,51.942310 513.000000,51.000000 
	C513.000000,70.687561 513.000000,90.375122 513.000000,110.531342 
z"/>
<path fill="#DD4A50" opacity="1.000000" stroke="none" 
	d="
M373.531342,1.000000 
	C372.040131,3.873634 370.136475,6.787836 368.101532,9.607287 
	C366.630707,11.645161 364.978973,13.551993 363.422485,15.528753 
	C363.013336,16.048426 362.739563,16.697546 362.266205,17.140366 
	C356.229004,22.788067 350.070862,28.310150 344.139832,34.066536 
	C338.966034,39.088005 333.774689,44.140350 329.125641,49.631580 
	C327.002075,52.139854 325.070343,54.236626 322.202911,56.105118 
	C318.683319,58.398552 316.506195,62.707897 313.628235,66.041756 
	C310.205261,70.006966 306.663940,73.870384 303.152649,77.758705 
	C302.158600,78.859474 301.261475,80.515305 300.027557,80.855225 
	C292.641418,82.889954 289.396790,89.634995 283.744080,94.594711 
	C272.522491,94.155128 261.792908,92.314529 251.177673,92.829697 
	C239.065521,93.417503 227.055237,96.103874 215.000671,97.878250 
	C217.745880,93.765579 218.743073,88.032845 224.957260,87.135201 
	C227.491776,80.259132 234.390457,77.801201 239.080734,73.111122 
	C245.107285,67.084808 250.770844,60.697227 256.725983,54.597267 
	C263.180084,47.986160 269.726349,41.461624 276.351624,35.022007 
	C281.632263,29.889364 287.292999,25.136206 292.418610,19.858753 
	C298.102173,14.006831 303.369629,7.750756 308.909119,1.335331 
	C330.354218,1.000000 351.708466,1.000000 373.531342,1.000000 
z"/>
<path fill="#D34349" opacity="1.000000" stroke="none" 
	d="
M513.000000,50.531342 
	C506.967010,51.942310 503.083984,55.591167 499.829895,60.580814 
	C496.259186,66.056015 492.861084,71.703217 486.330078,74.689865 
	C483.543396,75.964226 481.569763,79.123024 479.374298,81.558571 
	C476.173492,85.109329 473.299591,88.973518 469.929749,92.348007 
	C466.209137,96.073738 462.053650,99.361786 458.148499,102.907593 
	C455.040039,105.730042 451.027313,108.125633 449.165771,111.638069 
	C444.820862,119.836151 437.338165,124.827438 431.228027,131.199387 
	C425.307587,137.373459 419.227478,143.396774 413.137817,149.405563 
	C406.198730,156.252502 399.171448,163.010056 391.631592,169.756226 
	C384.561615,160.863861 378.042572,152.021698 371.523529,143.179550 
	C380.375793,139.841354 383.586060,130.522980 390.593018,125.147820 
	C394.320190,122.288635 397.235626,118.365135 400.487854,114.894356 
	C405.781311,109.245216 410.886749,103.407906 416.383728,97.965363 
	C420.509613,93.880363 425.205383,90.377190 429.487579,86.441078 
	C431.421204,84.663742 432.884583,82.386032 434.704010,80.470963 
	C438.591278,76.379471 442.583221,72.387634 446.511292,68.334633 
	C453.502716,61.120846 460.477570,53.890987 467.461426,46.669861 
	C470.451599,43.578102 473.352539,40.392559 476.459686,37.422962 
	C482.868225,31.298080 489.476746,25.380840 495.832306,19.202627 
	C500.403351,14.759130 504.654663,9.988072 509.158600,5.472867 
	C509.910980,4.718624 511.225189,4.524851 512.639893,4.036050 
	C513.000000,19.354227 513.000000,34.708454 513.000000,50.531342 
z"/>
<path fill="#BD353B" opacity="1.000000" stroke="none" 
	d="
M406.468658,513.000000 
	C406.983185,511.035919 407.533905,508.621094 409.027039,507.188568 
	C414.463989,501.972290 420.321045,497.196716 425.824768,492.046631 
	C434.292114,484.123383 440.186737,473.749939 450.549316,467.484009 
	C454.693726,464.978058 457.177185,459.791290 460.571045,455.961578 
	C465.064789,450.890686 469.507965,445.747620 474.343964,441.014740 
	C479.718903,435.754425 485.608948,431.023804 491.072784,425.849335 
	C493.196472,423.838135 494.469452,420.904572 496.651855,418.984283 
	C501.714752,414.529358 507.095520,410.435730 512.673706,406.097839 
	C513.000000,441.593597 513.000000,477.187225 513.000000,513.000000 
	C477.646088,513.000000 442.291687,513.000000 406.468658,513.000000 
z"/>
<path fill="#ED535A" opacity="1.000000" stroke="none" 
	d="
M88.531342,1.000001 
	C85.758568,5.058800 82.701279,9.283190 79.234077,13.138982 
	C73.519371,19.494188 67.583839,25.653818 61.642197,31.799994 
	C60.044479,33.452709 58.240105,35.017662 56.267651,36.174603 
	C50.842155,39.356907 46.891090,43.680904 43.749218,49.181530 
	C41.848721,52.508816 38.563633,55.099571 35.702621,57.812405 
	C30.017223,63.203323 24.013853,68.269073 18.482424,73.809196 
	C13.397362,78.902260 8.780476,84.461166 3.893829,89.756233 
	C3.375391,90.318001 2.430481,90.486183 1.341711,90.918480 
	C1.000000,61.073906 1.000000,31.147816 1.000000,1.000000 
	C30.020517,1.000000 59.041599,1.000000 88.531342,1.000001 
z"/>
<path fill="#FFFEFE" opacity="1.000000" stroke="none" 
	d="
M371.248718,143.017395 
	C378.042572,152.021698 384.561615,160.863861 391.316895,169.933014 
	C399.122314,183.939392 405.673309,198.130905 409.383301,213.847427 
	C412.822662,228.829773 415.819977,243.661972 414.838287,258.743988 
	C414.000214,271.618896 411.746704,284.401733 410.137756,297.614929 
	C404.560150,318.532684 396.167267,337.778992 383.709900,355.116333 
	C365.812408,380.024780 342.848602,398.611542 314.177185,410.564026 
	C300.927948,414.055481 288.061829,418.767151 274.852051,420.117584 
	C260.029022,421.633026 244.892792,420.207855 229.899323,419.814331 
	C227.361786,419.747711 224.857025,418.432007 221.958038,417.679413 
	C200.669891,412.024902 181.309708,403.146088 163.633392,389.985107 
	C156.243454,383.439362 148.532089,377.562836 142.251144,370.427185 
	C135.165100,362.376831 129.365936,353.193695 122.768677,344.214661 
	C113.551918,328.164062 106.964417,311.435944 102.490318,293.878754 
	C101.741074,290.938629 101.559776,287.853760 100.997131,284.419342 
	C100.274261,277.072754 99.435249,270.153534 99.112572,263.210327 
	C98.302704,245.784134 100.797401,228.686447 104.846581,211.382782 
	C111.444321,189.855606 120.736717,170.106857 134.470581,152.635925 
	C146.606628,137.197617 160.599396,123.598389 177.935150,114.268303 
	C189.571976,108.005386 202.150818,103.492783 214.654419,98.037643 
	C227.055237,96.103874 239.065521,93.417503 251.177673,92.829697 
	C261.792908,92.314529 272.522491,94.155128 283.602539,94.893059 
	C303.141174,98.230804 320.849701,105.358093 337.777527,115.433380 
	C349.049438,124.643364 360.011658,133.749298 371.248718,143.017395 
M306.467072,134.557175 
	C306.467072,134.557175 306.239349,134.514816 306.239349,134.514816 
	C306.239349,134.514816 306.491425,134.453339 306.027863,135.118317 
	C306.281372,135.875610 306.394012,136.722153 306.809052,137.377090 
	C316.997681,153.454697 322.308136,171.051926 323.178894,190.935562 
	C323.470764,226.837891 309.186523,255.664810 280.829651,277.326660 
	C290.192108,281.160187 299.225616,284.859039 308.858246,288.942383 
	C329.159851,299.031464 346.918854,312.542053 362.671265,329.378418 
	C371.025482,315.744354 376.845215,301.519470 379.961761,286.256256 
	C382.556030,273.550781 384.438690,260.780701 382.049683,247.742920 
	C380.219940,237.757324 378.774323,227.701309 377.139435,216.932236 
	C371.725708,198.650574 363.205750,182.067780 350.058136,167.238327 
	C347.316162,164.369476 344.631287,161.443405 341.822021,158.642014 
	C331.517975,148.366791 319.150513,141.085434 306.467072,134.557175 
M258.226898,304.961914 
	C245.642670,304.151459 233.053406,302.618134 220.475449,302.706024 
	C203.138138,302.827179 186.905853,309.126190 170.394714,313.643341 
	C162.465195,315.812775 154.570862,318.110840 146.144501,320.496796 
	C158.137772,343.068665 174.136444,360.809967 196.434677,373.553528 
	C252.215942,405.763092 313.250153,385.595947 342.160339,354.095612 
	C319.693634,328.850311 292.448090,311.808746 258.226898,304.961914 
M133.275787,283.052002 
	C133.862350,285.430084 134.448914,287.808167 135.071121,290.330750 
	C136.638077,290.003784 137.775757,289.834930 138.874481,289.527069 
	C164.160492,282.442169 189.454666,275.385864 214.719559,268.226257 
	C227.024200,264.739349 239.751831,262.186340 251.451462,257.234222 
	C279.725464,245.266739 296.231537,212.377472 290.520874,181.860123 
	C287.597565,166.238205 281.289795,152.443512 268.766144,141.223557 
	C263.736053,137.732697 258.986145,133.706467 253.603378,130.889481 
	C247.192307,127.534325 240.584824,124.856796 232.675842,126.533760 
	C162.292145,141.457458 119.943909,213.264938 133.275787,283.052002 
z"/>
<path fill="#D7464D" opacity="1.000000" stroke="none" 
	d="
M269.061737,141.814362 
	C281.289795,152.443512 287.597565,166.238205 290.520874,181.860123 
	C296.231537,212.377472 279.725464,245.266739 251.451462,257.234222 
	C239.751831,262.186340 227.024200,264.739349 214.719559,268.226257 
	C189.454666,275.385864 164.160492,282.442169 138.874481,289.527069 
	C137.775757,289.834930 136.638077,290.003784 135.071121,290.330750 
	C134.448914,287.808167 133.862350,285.430084 133.623199,282.462158 
	C135.652908,280.072968 137.333679,278.272217 139.017838,276.474640 
	C141.720001,273.590424 144.300430,270.578369 147.155441,267.854218 
	C152.080475,263.154907 157.608704,259.013489 162.068130,253.923370 
	C165.806229,249.656601 167.237335,243.307999 173.731812,241.630417 
	C173.863022,241.596542 173.947281,241.386505 174.056549,241.261368 
	C179.078384,235.510101 184.209198,229.849564 189.091980,223.982590 
	C193.922897,218.177933 200.597473,214.655838 205.645813,208.722565 
	C216.498306,195.967743 229.331177,184.905594 241.248642,173.045303 
	C245.658112,168.656998 249.812744,164.008972 254.005966,159.408646 
	C255.968781,157.255249 257.717621,154.908371 259.616028,152.694290 
	C262.742096,149.048355 265.910919,145.439087 269.061737,141.814362 
z"/>
<path fill="#DB494F" opacity="1.000000" stroke="none" 
	d="
M268.913940,141.518951 
	C265.910919,145.439087 262.742096,149.048355 259.616028,152.694290 
	C257.717621,154.908371 255.968781,157.255249 254.005966,159.408646 
	C249.812744,164.008972 245.658112,168.656998 241.248642,173.045303 
	C229.331177,184.905594 216.498306,195.967743 205.645813,208.722565 
	C200.597473,214.655838 193.922897,218.177933 189.091980,223.982590 
	C184.209198,229.849564 179.078384,235.510101 174.056549,241.261368 
	C173.947281,241.386505 173.863022,241.596542 173.731812,241.630417 
	C167.237335,243.307999 165.806229,249.656601 162.068130,253.923370 
	C157.608704,259.013489 152.080475,263.154907 147.155441,267.854218 
	C144.300430,270.578369 141.720001,273.590424 139.017838,276.474640 
	C137.333679,278.272217 135.652908,280.072968 133.629578,282.042664 
	C119.943909,213.264938 162.292145,141.457458 232.675842,126.533760 
	C240.584824,124.856796 247.192307,127.534325 253.603378,130.889481 
	C258.986145,133.706467 263.736053,137.732697 268.913940,141.518951 
z"/>
<path fill="#CF4147" opacity="1.000000" stroke="none" 
	d="
M259.007416,305.228088 
	C292.448090,311.808746 319.693634,328.850311 342.160339,354.095612 
	C313.250153,385.595947 252.215942,405.763092 196.246368,372.923859 
	C197.446564,370.145660 198.498779,367.647125 200.294189,365.922119 
	C203.929703,362.429199 208.241501,359.624512 211.768784,356.038666 
	C215.871475,351.867798 215.631363,343.713165 223.681458,343.061737 
	C224.015839,343.034668 224.269958,342.310822 224.604904,341.952148 
	C233.343201,332.594757 242.083939,323.239594 250.832275,313.891571 
	C253.545349,310.992523 256.281708,308.115295 259.007416,305.228088 
z"/>
<path fill="#D14349" opacity="1.000000" stroke="none" 
	d="
M350.310822,167.877686 
	C363.205750,182.067780 371.725708,198.650574 376.924011,217.580399 
	C369.804413,223.481781 365.960358,231.922363 357.845795,236.029678 
	C355.647736,237.142288 354.217651,239.816452 352.504120,241.832550 
	C349.240265,245.672699 346.248688,249.771729 342.743256,253.373199 
	C336.196625,260.099213 329.275482,266.459473 322.678589,273.138275 
	C317.735260,278.142975 313.055969,283.408478 308.259125,288.557861 
	C299.225616,284.859039 290.192108,281.160187 280.829651,277.326660 
	C309.186523,255.664810 323.470764,226.837891 323.573792,190.431396 
	C329.369781,185.004242 334.664001,179.956314 340.213623,175.206802 
	C343.363251,172.511261 346.931244,170.304550 350.310822,167.877686 
z"/>
<path fill="#CF4147" opacity="1.000000" stroke="none" 
	d="
M308.558685,288.750122 
	C313.055969,283.408478 317.735260,278.142975 322.678589,273.138275 
	C329.275482,266.459473 336.196625,260.099213 342.743256,253.373199 
	C346.248688,249.771729 349.240265,245.672699 352.504120,241.832550 
	C354.217651,239.816452 355.647736,237.142288 357.845795,236.029678 
	C365.960358,231.922363 369.804413,223.481781 376.933228,217.952591 
	C378.774323,227.701309 380.219940,237.757324 382.049683,247.742920 
	C384.438690,260.780701 382.556030,273.550781 379.961761,286.256256 
	C376.845215,301.519470 371.025482,315.744354 362.671265,329.378418 
	C346.918854,312.542053 329.159851,299.031464 308.558685,288.750122 
z"/>
<path fill="#D4444B" opacity="1.000000" stroke="none" 
	d="
M258.617157,305.095001 
	C256.281708,308.115295 253.545349,310.992523 250.832275,313.891571 
	C242.083939,323.239594 233.343201,332.594757 224.604904,341.952148 
	C224.269958,342.310822 224.015839,343.034668 223.681458,343.061737 
	C215.631363,343.713165 215.871475,351.867798 211.768784,356.038666 
	C208.241501,359.624512 203.929703,362.429199 200.294189,365.922119 
	C198.498779,367.647125 197.446564,370.145660 196.023621,372.662109 
	C174.136444,360.809967 158.137772,343.068665 146.144501,320.496796 
	C154.570862,318.110840 162.465195,315.812775 170.394714,313.643341 
	C186.905853,309.126190 203.138138,302.827179 220.475449,302.706024 
	C233.053406,302.618134 245.642670,304.151459 258.617157,305.095001 
z"/>
<path fill="#D7464D" opacity="1.000000" stroke="none" 
	d="
M350.184479,167.558014 
	C346.931244,170.304550 343.363251,172.511261 340.213623,175.206802 
	C334.664001,179.956314 329.369781,185.004242 323.629578,189.967789 
	C322.308136,171.051926 316.997681,153.454697 306.809052,137.377090 
	C306.394012,136.722153 306.281372,135.875610 306.217743,134.784195 
	C306.407623,134.450073 306.402802,134.366348 306.402802,134.366348 
	C319.150513,141.085434 331.517975,148.366791 341.822021,158.642014 
	C344.631287,161.443405 347.316162,164.369476 350.184479,167.558014 
z"/>
<path fill="#D7464D" opacity="1.000000" stroke="none" 
	d="
M306.449524,134.451706 
	C306.491425,134.453339 306.239349,134.514816 306.239349,134.514816 
	C306.239349,134.514816 306.467072,134.557175 306.434937,134.461761 
	C306.402802,134.366348 306.407623,134.450073 306.449524,134.451706 
z"/>
</svg>