<svg xmlns="http://www.w3.org/2000/svg" width="512" height="417" viewBox="0 0 512 417" version="1.1">
  <metadata xmlns:dc="http://purl.org/dc/elements/1.1/" xmlns:cc="http://creativecommons.org/ns#" xmlns:rdf="http://www.w3.org/1999/02/22-rdf-syntax-ns#" >
    <rdf:RDF>
      <cc:Work>
        <dc:format>image/svg+xml</dc:format>
        <dc:type rdf:resource="http://purl.org/dc/dcmitype/StillImage"/>
        <dc:source rdf:resource="https://spoutible.com/"/>
      </cc:Work>
    </rdf:RDF>
  </metadata>
  <path stroke="none" fill="#81d2e6" fill-rule="evenodd" d="M 300.236 27.979 C 281.994 32.306, 279.112 51.103, 294.024 68.500 C 297.324 72.350, 301.031 77.619, 302.262 80.209 C 305.016 86.005, 304.972 86.002, 307.875 80.530 C 309.179 78.072, 313.174 72.560, 316.752 68.280 C 326.753 56.321, 328.788 48.385, 324.172 39.337 C 319.556 30.288, 309.872 25.693, 300.236 27.979 M 239.325 340.750 C 263.979 340.899, 304.029 340.899, 328.325 340.750 C 352.621 340.601, 332.450 340.479, 283.500 340.479 C 234.550 340.479, 214.671 340.601, 239.325 340.750"/>
  <path stroke="none" fill="#3484b4" fill-rule="evenodd" d="M 93 159.286 C 93 311.202, 93.034 313.898, 95.009 320.295 C 100.461 337.947, 115.885 351.297, 134.190 354.208 C 141.500 355.370, 141.500 355.370, 141.220 384.278 C 141.043 402.616, 141.294 413.061, 141.909 412.843 C 142.441 412.654, 152.261 399.675, 163.729 384 C 184.581 355.500, 184.581 355.500, 282.541 354.976 C 360.633 354.558, 381.311 354.181, 384.500 353.113 C 399.744 348.009, 411.970 336.120, 416.996 321.513 C 420.122 312.425, 420.122 150.575, 416.996 141.487 C 408.350 116.358, 391.984 108, 351.422 108 C 325.915 108, 320.567 106.967, 310.850 100.160 C 305.313 96.282, 305.313 96.282, 301.669 98.999 C 289.787 107.858, 294.058 107.471, 204.932 107.773 C 110.763 108.092, 115.064 108.744, 115.015 94.132 C 114.980 83.775, 119.488 82, 145.823 82 C 171.876 82, 170.875 82.357, 167.116 74.414 C 160.905 61.292, 147.652 51.306, 133.145 48.818 C 126.025 47.597, 126 47.582, 126 44.386 C 126 29.504, 110.050 8.980, 95.750 5.460 C 93 4.783, 93 4.783, 93 159.286 M 299.378 222.414 C 292.136 225.619, 290.701 233.901, 296.400 239.600 C 302.322 245.522, 311.666 243.184, 314.064 235.181 C 316.603 226.706, 307.522 218.811, 299.378 222.414 M 400 271.918 C 400 273.090, 394.062 276.776, 389.785 278.258 C 387.524 279.042, 365.465 279.581, 319 279.986 C 231.424 280.751, 240.347 277.625, 210.815 317.883 C 202.559 329.138, 195.575 338.943, 195.295 339.673 C 194.654 341.344, 366.274 341.655, 375.006 339.999 C 385.848 337.943, 394.785 331.029, 399.339 321.176 C 401.809 315.832, 403.353 271, 401.068 271 C 400.480 271, 400 271.413, 400 271.918"/>
</svg>
