<?xml version="1.0" encoding="UTF-8" standalone="no"?>
<!DOCTYPE svg PUBLIC "-//W3C//DTD SVG 20010904//EN"
              "http://www.w3.org/TR/2001/REC-SVG-20010904/DTD/svg10.dtd">
<svg xmlns="http://www.w3.org/2000/svg"
     width="5.79167in" height="5.79167in"
     viewBox="0 0 417 417">
  <metadata xmlns:dc="http://purl.org/dc/elements/1.1/" xmlns:cc="http://creativecommons.org/ns#" xmlns:rdf="http://www.w3.org/1999/02/22-rdf-syntax-ns#" >
    <rdf:RDF>
      <cc:Work>
        <dc:format>image/svg+xml</dc:format>
        <dc:type rdf:resource="http://purl.org/dc/dcmitype/StillImage"/>
        <dc:source rdf:resource="https://spoutible.com/"/>
      </cc:Work>
    </rdf:RDF>
  </metadata>

  <path id="water"
        fill="#81d2e6" stroke="none"
        d="M 256.00,85.00
           C 248.04,66.63 235.29,64.09 236.04,47.00
             237.27,18.89 281.15,22.15 278.81,50.00
             277.93,60.55 270.55,66.09 264.76,74.00
             264.76,74.00 258.00,85.00 258.00,85.00
             258.00,85.00 256.00,85.00 256.00,85.00 Z" />
  <path id="whale"
        fill="#3484b4" stroke="none"
        d="M 45.00,5.00
           C 59.44,6.53 72.59,21.68 76.56,35.00
             78.12,40.23 78.00,42.70 78.00,48.00
             97.77,48.18 118.31,61.59 122.00,82.00
             122.00,82.00 83.00,82.00 83.00,82.00
             68.95,82.19 62.35,95.05 71.21,103.78
             75.55,108.05 80.37,107.99 86.00,108.00
             86.00,108.00 224.00,108.00 224.00,108.00
             231.64,107.99 238.01,106.95 245.00,103.68
             248.02,102.26 254.86,97.19 257.00,97.09
             259.54,96.97 262.87,99.79 265.00,101.13
             269.01,103.64 273.39,105.64 278.00,106.76
             286.96,108.93 311.42,107.98 322.00,108.00
             347.03,108.04 370.96,126.84 371.00,153.00
             371.00,153.00 371.00,310.00 371.00,310.00
             370.96,335.54 347.71,354.96 323.00,355.00
             323.00,355.00 146.00,355.00 146.00,355.00
             134.06,355.02 133.43,360.90 126.63,370.00
             126.63,370.00 104.63,400.00 104.63,400.00
             101.20,404.59 98.17,410.31 93.00,413.00
             93.00,413.00 93.00,355.00 93.00,355.00
             68.83,354.78 45.30,335.13 45.00,310.00
             45.00,310.00 45.00,208.00 45.00,208.00
             45.00,208.00 45.00,5.00 45.00,5.00 Z
           M 254.00,221.41
           C 250.58,222.49 247.96,223.67 246.17,227.04
             241.50,235.85 249.62,245.11 259.00,242.57
             270.57,239.43 269.23,220.12 254.00,221.41 Z
           M 354.00,270.00
           C 349.90,272.83 346.81,275.74 342.00,277.45
             332.44,280.87 310.84,280.00 300.00,280.00
             300.00,280.00 213.00,280.00 213.00,280.00
             186.49,280.13 178.42,296.08 164.37,315.00
             159.86,321.06 148.76,334.51 147.00,341.00
             147.00,341.00 319.00,341.00 319.00,341.00
             339.87,340.97 353.97,328.23 354.00,307.00
             354.00,307.00 354.00,270.00 354.00,270.00 Z" />
</svg>
