<?xml version="1.0" encoding="UTF-8" standalone="no"?>
<!DOCTYPE svg PUBLIC "-//W3C//DTD SVG 20010904//EN"
              "http://www.w3.org/TR/2001/REC-SVG-20010904/DTD/svg10.dtd">
<svg xmlns="http://www.w3.org/2000/svg" viewBox="0 0 825 825">

  <rect id="bg" x="0" y="0" width="825" height="825" fill="#efefef" stroke="none" />

  <path style="fill: #d0d0d0; stroke: none; fill-opacity: 1;"
        d="M 347.94794,748.00553 C 347.94794,745.02943 353.82224,726.64391 361.002,707.14882 C 368.18175,687.65373 375.40262,665.83901 377.04845,658.67176 C 379.17841,649.39609 384.31193,644.86714 394.86037,642.95762 C 403.01113,641.48217 411.69241,642.07165 414.15219,644.26756 C 416.61191,646.46352 429.14253,642.83673 441.99791,636.20809 C 454.85329,629.57945 475.46291,623.78473 487.79695,623.33095 C 515.75776,622.3023 527.69806,634.12762 532.70849,667.80999 C 534.64774,680.84635 537.4742,697.35346 538.98948,704.49239 C 541.41662,715.92717 539.143,718.4326 519.88956,725.53978 C 507.86933,729.97692 496.87562,733.60728 495.45917,733.60728 C 494.04272,733.60728 492.88382,721.49532 492.88382,706.69186 C 492.88382,665.70228 486.42865,654.37001 463.0798,654.37001 C 436.03804,654.37001 415.53015,674.29036 407.64317,708.21857 C 398.38247,748.05585 393.8266,753.41659 369.23109,753.41659 C 357.41812,753.41659 347.94794,751.00887 347.94794,748.00553 z M 130.54414,725.13419 L 109.07216,711.71496 L 135.83876,708.04727 C 182.25732,701.68674 186.9081,699.75083 186.9081,686.78954 C 186.9081,673.76502 201.95223,604.17375 205.46928,600.92904 C 206.66141,599.82922 215.24075,603.04645 224.53447,608.07847 C 241.06017,617.02614 241.35297,617.81707 237.83468,644.00365 C 235.85611,658.73054 232.99212,673.77324 231.47035,677.43187 C 224.7379,693.61772 272.25332,674.33528 303.24345,648.30524 C 312.71378,640.35076 319.07902,639.1629 337.1447,641.97869 C 358.86189,645.36371 359.1611,645.67521 349.83126,655.18626 C 333.24335,672.09638 271.50706,707.01708 234.13631,720.62831 C 179.80678,740.41628 156.61129,741.42522 130.54414,725.13419 z M 587.07533,682.84591 C 564.25212,615.42094 561.99692,610.88817 552.42326,613.19789 C 539.92737,616.21257 533.93895,602.55033 542.32569,590.16089 C 547.21099,582.94396 547.12424,577.73064 541.94429,567.24221 C 536.03343,555.27371 536.58231,552.44376 546.57789,543.35173 L 557.9166,533.03796 L 568.92163,546.82113 C 577.45363,557.50707 581.55338,559.35874 587.166,555.06136 C 601.69351,543.93818 613.39794,565.96852 599.68314,578.62132 C 595.35702,582.61245 598.97838,594.59288 613.08085,622.94466 L 632.40719,661.79851 L 615.18624,675.41741 C 596.12164,690.49428 590.19451,692.0606 587.07533,682.84591 z M 76.864191,631.99024 C 40.248559,615.0244 8.6836207,565.78865 20.910249,544.71198 C 23.844879,539.65313 29.180451,535.52823 32.767077,535.54542 C 41.367357,535.58672 58.076208,563.05164 58.076208,577.14701 C 58.076208,588.71852 78.226964,609.79905 89.288147,609.79905 C 98.661794,609.79905 97.059233,597.09192 84.916183,575.13275 C 68.137226,544.79008 73.048298,525.60946 97.596139,525.60946 C 125.32114,525.60946 176.17211,568.26397 176.17211,591.52011 C 176.17211,612.3971 150.79904,602.01845 137.02632,575.50779 C 130.03343,562.04731 111.75616,555.18834 111.75616,566.02458 C 111.75616,569.58585 118.2903,584.01322 126.27642,598.08541 C 138.58857,619.78037 139.71305,624.87573 133.67111,631.59212 C 124.71182,641.5515 97.904745,641.73935 76.864191,631.99024 z M 652.73042,592.86189 C 635.40737,584.9184 626.57009,558.28473 630.04275,524.48568 C 636.99661,456.80463 666.8103,409.69178 702.10014,410.61747 C 711.84085,410.87296 722.29765,413.37652 725.33744,416.18092 C 733.45874,423.67335 720.72789,471.43143 698.92819,515.25167 C 680.30533,552.68612 679.55365,561.51865 695.78309,552.20743 C 713.47127,542.05932 729.0733,514.81284 729.15709,493.92506 C 729.20192,482.75176 732.56963,463.58154 736.64088,451.32453 L 744.04319,429.03905 L 749.97938,442.98035 C 766.30722,481.32658 750.68839,540.59719 715.76556,572.8158 C 691.37677,595.31607 671.71708,601.56813 652.73042,592.86189 z M 678.30967,504.2519 C 701.52158,457.47646 701.64096,432.25786 678.53905,455.80857 C 668.91353,465.62101 653.92367,505.59076 653.92367,521.44421 C 653.92367,538.56931 665.2385,530.59225 678.30967,504.2519 z M 721.02361,383.33247 C 691.49964,374.29868 657.07737,364.64411 644.52968,361.87794 C 623.97955,357.3476 621.7157,355.37628 621.7157,342.01182 L 621.7157,327.17514 L 649.89768,330.19136 C 691.83111,334.67925 762.64436,347.75578 773.36157,352.99044 C 779.85587,356.16246 782.75556,363.54935 782.75556,376.92158 C 782.75556,387.56012 780.94386,397.05032 778.72956,398.01097 C 776.51526,398.97158 750.54759,392.36626 721.02361,383.33247 z M 692.77508,302.20282 C 649.5384,282.45828 600.41689,217.52691 600.29617,179.95939 C 600.23186,159.94401 620.59658,139.32781 640.43208,139.32781 C 696.64782,139.32781 757.44927,203.47111 757.44927,262.77654 C 757.44927,285.84721 755.39102,291.30141 742.96309,301.16368 C 725.2041,315.25652 721.52676,315.33264 692.77508,302.20282 z M 723.71964,258.163 C 737.64958,234.1501 703.70152,183.29359 669.05611,176.27342 C 626.33395,167.61665 627.15005,221.66221 670.24673,255.11761 C 690.60463,270.92124 715.49614,272.33884 723.71964,258.163 z M 530.65593,143.51713 C 495.93193,134.14054 463.46195,105.06254 475.40842,94.041136 C 482.22025,87.756779 509.09538,97.646976 518.35759,109.84674 C 526.38194,120.41595 546.56377,123.09863 546.56377,113.59605 C 546.56377,110.3387 535.36001,98.578162 521.66647,87.46157 C 492.35266,63.664144 492.49126,49.390047 522.12377,40.367696 C 565.33989,27.209506 637.81969,67.725549 637.81969,105.0415 C 637.81969,125.01766 626.41372,123.538 606.26007,100.94726 C 575.91296,66.930403 573.48013,65.042873 559.98376,65.042873 C 543.20228,65.042873 543.01864,70.148427 559.29279,84.253353 C 566.29378,90.321095 576.49437,102.9476 581.96082,112.31216 C 590.70732,127.29583 590.95124,130.19596 583.99378,136.48354 C 572.75288,146.64215 552.24397,149.34662 530.65593,143.51713 z " />


  <rect id="pg" x="100" y="100" width="625" height="625" fill="#ffffffa5" stroke="none" />
  <rect id="fg" x="159" y="167" width="516" height="516" fill="#ffffffa5" stroke="black" stroke-width="20"/>
</svg>
