<?xml version="1.0" encoding="UTF-8" standalone="no"?>
<!DOCTYPE svg PUBLIC "-//W3C//DTD SVG 20010904//EN"
              "http://www.w3.org/TR/2001/REC-SVG-20010904/DTD/svg10.dtd">
<svg xmlns="http://www.w3.org/2000/svg"
     width="2.22222in" height="2.22222in"
     viewBox="0 0 200 200">
  <metadata xmlns:dc="http://purl.org/dc/elements/1.1/" xmlns:cc="http://creativecommons.org/ns#" xmlns:rdf="http://www.w3.org/1999/02/22-rdf-syntax-ns#" >
    <rdf:RDF>
      <cc:Work>
        <dc:format>image/svg+xml</dc:format>
        <dc:type rdf:resource="http://purl.org/dc/dcmitype/StillImage"/>
        <dc:source rdf:resource="https://commons.wikimedia.org/wiki/File:Threads_(app)_logo.svg"/>
        <dc:source rdf:resource="https://www.threads.net/404" />
	<dc:source rdf:resource="https://www.syntelos.io/images/threads.svg"/>
      </cc:Work>
    </rdf:RDF>
  </metadata>
  <path id="threads"
        fill="#000" stroke="none" stroke-width="0"
        d="M 145.54,92.99
           C 144.71,92.59 143.87,92.21 143.02,91.85
             141.54,64.54 126.62,48.91 101.56,48.75
             101.45,48.74 101.34,48.74 101.22,48.74
             86.24,48.74 73.77,55.14 66.10,66.78
             66.10,66.78 79.88,76.23 79.88,76.23
             85.61,67.54 94.61,65.68 101.23,65.68
             101.31,65.68 101.38,65.68 101.46,65.69
             109.71,65.74 115.93,68.14 119.96,72.81
             122.89,76.22 124.85,80.92 125.82,86.86
             118.51,85.62 110.60,85.24 102.14,85.72
             78.32,87.10 63.01,100.99 64.04,120.29
             64.56,130.08 69.44,138.51 77.77,144.01
             84.82,148.66 93.90,150.94 103.33,150.42
             115.79,149.74 125.56,144.99 132.38,136.30
             137.56,129.70 140.83,121.14 142.28,110.37
             148.22,113.95 152.62,118.66 155.05,124.33
             159.18,133.97 159.42,149.80 146.50,162.71
             135.18,174.02 121.58,178.91 101.01,179.06
             78.20,178.89 60.95,171.57 49.74,157.32
             39.24,143.97 33.81,124.68 33.61,100.00
             33.81,75.32 39.24,56.03 49.74,42.68
             60.95,28.42 78.20,21.11 101.01,20.94
             123.99,21.11 141.54,28.46 153.18,42.79
             158.89,49.81 163.20,58.65 166.04,68.95
             166.04,68.95 182.18,64.64 182.18,64.64
             178.74,51.96 173.33,41.04 165.97,31.97
             151.04,13.61 129.20,4.20 101.07,4.00
             101.07,4.00 100.96,4.00 100.96,4.00
             72.88,4.19 51.29,13.64 36.79,32.08
             23.88,48.49 17.22,71.32 17.00,99.93
             17.00,99.93 17.00,100.00 17.00,100.00
             17.00,100.00 17.00,100.07 17.00,100.07
             17.22,128.68 23.88,151.51 36.79,167.92
             51.29,186.36 72.88,195.81 100.96,196.00
             100.96,196.00 101.07,196.00 101.07,196.00
             126.03,195.83 143.62,189.29 158.12,174.81
             177.08,155.87 176.51,132.12 170.26,117.54
             165.78,107.09 157.23,98.60 145.54,92.99 Z
           M 102.44,133.51
           C 92.00,134.09 81.15,129.41 80.62,119.37
             80.22,111.93 85.92,103.63 103.08,102.64
             105.05,102.52 106.98,102.47 108.87,102.47
             115.11,102.47 120.94,103.07 126.24,104.23
             124.26,128.94 112.66,132.95 102.44,133.51 Z" />
</svg>
